<svg width="60" height="60" viewBox="0 0 60 60" fill="none" xmlns="http://www.w3.org/2000/svg">
<g clip-path="url(#clip0_89_51)">
<path fill-rule="evenodd" clip-rule="evenodd" d="M29.9993 16.5377C35.2005 11.1939 48.2018 20.5502 29.9993 32.5764C11.7968 20.5502 24.798 11.1977 29.9993 16.5452V16.5377Z" fill="#FF62B8"/>
<path d="M7.5 7.5C7.5 5.51088 8.29018 3.60322 9.6967 2.1967C11.1032 0.790176 13.0109 0 15 0L45 0C46.9891 0 48.8968 0.790176 50.3033 2.1967C51.7098 3.60322 52.5 5.51088 52.5 7.5V58.125C52.4998 58.4642 52.4077 58.7969 52.2333 59.0878C52.059 59.3788 51.809 59.6169 51.51 59.777C51.211 59.9371 50.8742 60.0131 50.5354 59.9969C50.1966 59.9807 49.8686 59.8729 49.5863 59.685L30 49.1287L10.4137 59.685C10.1314 59.8729 9.80336 59.9807 9.46459 59.9969C9.12582 60.0131 8.789 59.9371 8.49 59.777C8.191 59.6169 7.94102 59.3788 7.76668 59.0878C7.59234 58.7969 7.50018 58.4642 7.5 58.125V7.5ZM15 3.75C14.0054 3.75 13.0516 4.14509 12.3483 4.84835C11.6451 5.55161 11.25 6.50544 11.25 7.5V54.6225L28.9613 45.315C29.269 45.1102 29.6304 45.001 30 45.001C30.3696 45.001 30.731 45.1102 31.0388 45.315L48.75 54.6225V7.5C48.75 6.50544 48.3549 5.55161 47.6516 4.84835C46.9484 4.14509 45.9946 3.75 45 3.75H15Z" fill="black"/>
</g>
<defs>
<clipPath id="clip0_89_51">
<rect width="60" height="60" fill="white"/>
</clipPath>
</defs>
</svg>
